<?xml version="1.0" encoding="UTF-8" standalone="no"?>
<!-- Created with Inkscape (http://www.inkscape.org/) -->

<svg
   version="1.1"
   id="svg1"
   width="171.99944"
   height="98.535004"
   viewBox="0 0 171.99943 98.535003"
   sodipodi:docname="logo-sevisa.svg"
   inkscape:version="1.3.2 (091e20e, 2023-11-25, custom)"
   xmlns:inkscape="http://www.inkscape.org/namespaces/inkscape"
   xmlns:sodipodi="http://sodipodi.sourceforge.net/DTD/sodipodi-0.dtd"
   xmlns="http://www.w3.org/2000/svg"
   xmlns:svg="http://www.w3.org/2000/svg">
  <sodipodi:namedview
     id="namedview1"
     pagecolor="#ffffff"
     bordercolor="#000000"
     borderopacity="0.25"
     inkscape:showpageshadow="2"
     inkscape:pageopacity="0.0"
     inkscape:pagecheckerboard="0"
     inkscape:deskcolor="#d1d1d1"
     inkscape:zoom="4.5523405"
     inkscape:cx="85.999718"
     inkscape:cy="49.315292"
     inkscape:window-width="2400"
     inkscape:window-height="1261"
     inkscape:window-x="2391"
     inkscape:window-y="-9"
     inkscape:window-maximized="1"
     inkscape:current-layer="svg1" />
  <defs
     id="defs1" />
  <g
     id="g1"
     transform="matrix(0.17333063,0,0,0.17333063,-0.98161053,-7.0128239)">
    <path
       style="fill:#000000"
       d="m 235.99738,598.69555 c -21.33856,-6.7939 -39.08029,-12.43402 -39.42607,-12.5336 -0.88474,-0.25479 7.29304,-10.17777 14.5357,-17.63773 21.64088,-22.29016 55.29104,-41.8497 93.29299,-54.22761 32.69548,-10.64949 68.3554,-17.19459 113.60001,-20.85038 26.59321,-2.14875 93.31949,-1.22684 120.09892,1.65931 5.50108,0.59288 5.50108,0.59288 -2.89892,1.0993 -4.62,0.27853 -16.30386,0.90426 -25.96413,1.39052 -95.71382,4.81779 -165.99251,26.06412 -204.95663,61.96154 -14.92652,13.75172 -24.62841,29.39379 -28.13869,45.36715 -1.3458,6.12404 -1.3458,6.12404 -40.14318,-6.2285 z m -94.862,-32.40516 C 111.36518,545.96679 80.305211,514.90554 60.045545,485.19722 34.26679,447.39582 16.524787,404.68573 9.6150609,363.79657 4.0711166,330.98959 4.3678203,296.55018 10.457602,266.00001 22.551034,205.33175 58.043122,147.39163 110,103.49903 c 14.90479,-12.591397 32.91073,-24.160539 52.8,-33.924959 31.69172,-15.5587 60.93645,-23.622553 102,-28.125173 12.07116,-1.323603 59.44465,-1.31826 73.2,0.0083 67.19298,6.479845 132.53466,22.329532 221.60001,53.752688 20.09375,7.089274 60.47733,22.257694 78.8,29.597944 55.12634,22.08419 105.34512,36.66575 154,44.71555 28.40764,4.69995 45.6363,6.34293 73.6,7.01871 45.30278,1.0948 88.12152,-4.88691 119.17077,-16.64795 4.38393,-1.66057 8.07501,-2.91499 8.2024,-2.78759 0.45487,0.45486 2.54455,17.89999 3.55688,29.6935 1.57467,18.34487 1.3391,66.24973 -0.4111,83.6 -8.32023,82.48081 -35.95364,138.57695 -84.1317,170.78831 -15.09424,10.09185 -44.53338,23.53821 -67.98725,31.05324 -64.78631,20.75867 -145.43455,26.65076 -242.4,17.70956 -7.04,-0.64916 -20.54,-2.05948 -30,-3.13405 -34.09038,-3.87233 -53.5565,-5.36554 -94,-7.21056 -56.23571,-2.56546 -99.70486,-0.50246 -145.20001,6.89103 -76.0537,12.35962 -137.08304,39.66571 -172.89786,77.35893 -4.67383,4.91895 -8.66291,8.94355 -8.86463,8.94355 -0.20171,0 -4.65767,-2.92933 -9.90213,-6.50963 z M 222.8,382.09074 c 13.28476,-2.73675 24.27496,-7.79634 31.38506,-14.44885 4.3199,-4.04188 4.3199,-4.04188 9.66742,1.17367 8.86966,8.65076 19.49944,12.73382 37.6795,14.47326 10.64001,1.01802 27.90559,0.46083 42.06802,-1.35759 11.72751,-1.50578 31.90553,-5.63192 34.72981,-7.10178 3.38091,-1.75956 5.25212,-4.33667 10.18659,-14.02944 4.6836,-9.2 4.6836,-9.2 5.0836,1.2 0.35002,9.10039 0.62297,10.71258 2.18425,12.90138 3.69813,5.18449 2.87334,5.09863 48.97639,5.09863 44.15193,0 44.05196,0.008 47.35806,-3.7181 0.72321,-0.81505 3.17389,-4.90191 5.44596,-9.08191 2.79761,-5.14684 3.9262,-6.6962 3.49643,-4.8 -1.5594,6.88032 0.30237,12.42906 5.30048,15.79729 2.65533,1.78943 2.89274,1.80272 32.20934,1.80272 19.58509,0 30.07714,-0.29053 31.14576,-0.86244 1.17685,-0.62983 4.56098,-0.52758 12.54741,0.37914 20.80075,2.36155 33.41874,3.10798 53.33593,3.15514 32.07001,0.0759 45.65628,-2.9647 59.14486,-13.23674 4.74485,-3.61338 4.74485,-3.61338 8.93642,0.91401 7.70377,8.321 16.84466,12.00922 31.32749,12.64022 11.19572,0.48778 19.39888,-0.56217 27.65579,-3.53975 5.16303,-1.86188 5.61113,-1.90107 8.1209,-0.7101 2.26154,1.07317 6.84144,1.26052 30.81454,1.26052 30.90675,0 31.87737,-0.1338 35.24108,-4.8577 1.00011,-1.40453 7.22044,-23.15973 16.42765,-57.4547 14.07722,-52.43472 14.77233,-55.36417 13.903,-58.59261 -1.16763,-4.33622 -5.12427,-8.29742 -9.45183,-9.46272 -2.30552,-0.62081 -11.97529,-0.8348 -30.35168,-0.67167 -26.00325,0.23082 -27.07319,0.30143 -29.9018,1.97322 -2.93359,1.73384 -2.93359,1.73384 -7.96124,-0.29692 -7.94288,-3.20827 -17.16791,-4.48852 -28.70518,-3.98369 -11.83022,0.51764 -19.31475,2.40169 -27.92208,7.0287 -5.92208,3.18351 -5.92208,3.18351 -8,1.24854 -3.49953,-3.25876 -5.16549,-3.7132 -19.45858,-5.30782 -42.4851,-4.73988 -75.70893,-4.04288 -92.54413,1.94149 -1.93864,0.68913 -3.61912,1.15863 -3.73441,1.04333 -0.1153,-0.11529 0.30086,-2.17758 0.92479,-4.58288 1.4696,-5.66547 1.45037,-14.27299 -0.0399,-17.83962 -1.47417,-3.5282 -5.00643,-7.09893 -8.96936,-9.06706 -2.79311,-1.38716 -5.0891,-1.5179 -26.65636,-1.5179 -23.11376,0 -23.6864,0.0391 -27.79332,1.89564 -7.5278,3.40303 -12.70645,11.08043 -14.74204,21.85524 -1.01089,5.35088 -1.01089,5.35088 -26.63777,5.6 -22.03173,0.21417 -25.96357,0.43486 -28.02687,1.57311 -3.51418,1.93863 -5.68621,4.57462 -7.41859,9.00319 -1.53625,3.92719 -1.53625,3.92719 -2.06987,0.59009 -0.74126,-4.63561 -5.02811,-9.25451 -9.67524,-10.42467 -4.82335,-1.21454 -51.27642,-1.2077 -56.10541,0.008 -1.96769,0.49547 -4.65855,1.9106 -5.97969,3.14473 -2.40208,2.24388 -2.40208,2.24388 -6.97664,0.21102 -12.40245,-5.51141 -30.89812,-7.96019 -54.5103,-7.217 -19.37852,0.60993 -32.05923,2.89855 -40.90959,7.38336 -3.71365,1.88186 -3.71365,1.88186 -2.51688,-3.11998 1.44383,-6.03444 0.86675,-9.94291 -1.96492,-13.30816 -3.2303,-3.839 -5.73179,-4.68272 -18.83013,-6.35116 -23.08897,-2.94104 -33.08161,-3.56832 -57.44275,-3.60596 -26.36811,-0.0407 -34.55688,0.6828 -46.37021,4.09717 -19.99027,5.77773 -33.08767,19.21745 -40.32627,41.38027 -5.23911,16.04089 -4.57997,35.72331 1.50748,45.01392 1.68066,2.56502 1.58974,2.67094 -2.29269,2.67094 -3.78855,0 -7.68346,2.13062 -10.26161,5.61336 -1.90671,2.57573 -10.26311,34.37096 -10.34673,39.3682 -0.0712,4.25293 2.0283,8.40771 5.34746,10.58251 2.5189,1.65045 9.63006,3.01048 27.14257,5.19112 21.66481,2.69768 29.70113,3.11673 55.2,2.87835 18.46431,-0.17262 25.47619,-0.52847 30.4,-1.54281 z m -48,-11.42098 c -15.15928,-0.71917 -39.10427,-3.18061 -53.79731,-5.53013 -3.2214,-0.51512 -3.2214,-0.51512 0.79201,-16.22737 2.20737,-8.64173 4.05658,-15.75695 4.10935,-15.81159 0.0528,-0.0546 5.21897,0.55916 11.48044,1.36398 31.9759,4.11008 56.5672,3.69012 61.61519,-1.05223 2.07827,-1.95243 2.39581,-5.89152 0.6658,-8.2595 -1.04547,-1.43103 -2.56804,-1.59261 -19.4,-2.05873 -10.04601,-0.2782 -20.07759,-0.88411 -22.29238,-1.34646 -14.35128,-2.99593 -20.25168,-8.78922 -22.07666,-21.6759 -2.01311,-14.21519 5.00743,-35.21416 15.28449,-45.71703 7.39703,-7.55957 17.60316,-11.65069 34.01907,-13.63654 10.20922,-1.23502 43.04474,-1.21279 57.6,0.039 13.58039,1.16793 34.82602,3.80211 35.41488,4.39097 0.34405,0.34405 -9.15084,37.99699 -9.74199,38.63284 -0.0926,0.0996 -4.28684,-0.52753 -9.3206,-1.39356 -29.17118,-5.01876 -61.16356,-3.49309 -64.68387,3.08467 -1.18152,2.20769 -1.09059,4.31793 0.2661,6.17494 1.05639,1.44598 2.6125,1.58942 22.6,2.08331 22.67055,0.56019 26.60378,1.12801 33.15064,4.78575 7.4669,4.17177 10.94546,12.63552 9.98055,24.28384 -1.19552,14.43214 -5.5163,25.34518 -13.10555,33.10081 -11.96435,12.22664 -33.54774,16.61974 -72.56016,14.76894 z m 121.19193,-1.48665 c -16.05604,-2.50445 -26.29512,-9.48897 -29.67304,-20.24125 -1.67056,-5.3176 -1.83253,-20.78488 -0.30001,-28.6497 1.90469,-9.77477 7.02554,-25.14851 10.45483,-31.38735 12.84751,-23.37317 27.21132,-29.97869 65.12629,-29.9498 38.51938,0.0294 56.02993,8.14512 59.13186,27.40636 1.26216,7.83729 -1.09541,20.65934 -6.41069,34.86571 -1.6304,4.35763 -1.6304,4.35763 -40.17578,4.56528 -38.54539,0.20765 -38.54539,0.20765 -38.794,4.12461 -0.33626,5.29798 0.91304,7.88741 4.88142,10.11776 6.32606,3.55545 28.12546,3.02493 52.67913,-1.28201 6.12277,-1.07399 11.48095,-1.95271 11.90707,-1.95271 0.42613,0 -2.17124,5.90488 -5.77192,13.12194 -6.5467,13.12195 -6.5467,13.12195 -14.55904,14.82805 -25.52925,5.43605 -51.35182,7.10731 -68.49612,4.43311 z m 62.82286,-66.00702 c 0.28007,-0.45316 0.55521,-2.78833 0.61142,-5.18928 0.18922,-8.082 -4.6751,-11.93507 -14.9748,-11.86167 -10.81523,0.0771 -16.92906,3.75578 -21.617,13.00697 -1.07943,2.13017 -1.73876,4.09688 -1.46518,4.37047 0.88132,0.88131 36.89315,0.56732 37.44556,-0.32649 z m 370.88183,66.37257 c -17.55344,-3.12141 -25.54364,-16.0257 -23.32285,-37.66672 3.28912,-32.0516 17.51129,-59.65038 34.82624,-67.58192 7.84556,-3.59385 13.29652,-4.47257 25.50363,-4.11132 13.32526,0.39435 17.96088,1.68196 23.44982,6.51351 3.66062,3.22221 8.24462,11.25947 8.24592,14.4578 0.001,3.45793 1.47209,-0.42672 3.5436,-9.36 2.17973,-9.4 2.17973,-9.4 27.37229,-9.4 23.62491,0 25.16555,0.0871 24.75856,1.4 -0.45282,1.46072 -14.29551,52.67461 -22.92074,84.8 -4.99384,18.6 -4.99384,18.6 -29.36677,18.6 -22.8351,0 -24.34706,-0.0883 -23.96309,-1.4 5.1195,-17.48822 6.18065,-21.38837 5.98173,-21.98514 -0.13039,-0.39117 -1.7776,1.61504 -3.66046,4.45823 -3.68887,5.57032 -9.8131,11.77344 -14.94504,15.13755 -7.88537,5.16905 -24.65129,8.06767 -35.50284,6.13801 z m 47.23597,-33.98129 c 7.36937,-2.51099 13.07771,-10.65555 14.49174,-20.67655 0.66299,-4.69846 0.58234,-6.21089 -0.46251,-8.67329 -3.30679,-7.79315 -16.713,-9.15021 -24.505,-2.48055 -7.71228,6.60142 -12.27953,23.11301 -7.92466,28.64933 3.40775,4.33225 11.11262,5.66427 18.40043,3.18106 z m -162.93258,33.46767 c -7.30965,-0.39966 -36.65031,-3.41866 -37.0432,-3.81156 -0.30131,-0.3013 6.08587,-26.08403 6.59727,-26.63079 0.10665,-0.11403 4.66061,0.30917 10.11992,0.94044 22.59405,2.61261 42.01504,2.32357 47.88651,-0.71269 3.25248,-1.68192 4.60918,-4.53377 3.40947,-7.16686 -0.88686,-1.94643 -0.88686,-1.94643 -19.52841,-2.22144 -15.58068,-0.22986 -19.29835,-0.51487 -22.64156,-1.73581 -5.71287,-2.08635 -8.73475,-4.64987 -11.1173,-9.43102 -1.76062,-3.53311 -2.0827,-5.24882 -2.0827,-11.0944 0,-20.77659 10.77343,-37.36769 28.04227,-43.18514 15.03285,-5.0642 56.43236,-5.30397 91.22475,-0.52833 6.86701,0.94257 6.86701,0.94257 2.93257,15.34257 -2.16395,7.92 -4.1741,14.64293 -4.46702,14.93984 -0.29291,0.29692 -4.49257,0.0304 -9.33257,-0.59232 -20.67981,-2.66057 -43.19053,-2.25514 -49.26742,0.88734 -4.33005,2.23916 -4.82452,7.48886 -0.85641,9.09237 1.34313,0.54276 8.59339,0.78739 19.72383,0.6655 17.18473,-0.18818 17.71242,-0.14554 22.36455,1.80727 3.40535,1.42946 5.49919,2.96516 7.33981,5.38328 7.92109,10.40642 4.02072,33.41925 -7.64056,45.08053 -7.13979,7.13979 -16.74296,10.99121 -31.6638,12.69898 -6.57192,0.7522 -32.30913,0.91144 -44,0.27224 z M 406.09267,322.2077 c -0.28705,-24.75423 -0.73813,-48.33769 -1.00242,-52.40769 -0.48052,-7.4 -0.48052,-7.4 24.53534,-7.4 25.01585,0 25.01585,0 24.46783,19.8 -0.54345,19.63531 -1.6232,40.97069 -2.54029,50.19514 -0.2622,2.63732 -0.23728,4.55569 0.0554,4.26303 0.29266,-0.29266 2.76443,-6.05047 5.49282,-12.79514 2.72839,-6.74466 9.62675,-23.32708 15.32969,-36.84981 10.36899,-24.58678 10.36899,-24.58678 38.18393,-24.6 27.81495,-0.0132 27.81495,-0.0132 23.22279,8.58678 -55.71147,104.33397 -47.75907,95.78062 -89.26227,96.0077 -37.96089,0.20769 -37.96089,0.20769 -38.4828,-44.80001 z m 110.47509,34.40345 c 25.39534,-95.60888 24.6508,-93.01928 26.70756,-92.89246 1.05858,0.0653 6.4692,0.55445 12.0236,1.08704 9.63067,0.92345 26.31781,0.27094 34.39775,-1.34505 2.39766,-0.47953 2.46464,-0.41746 1.96545,1.82144 -0.28424,1.27484 -6.54775,24.63789 -13.91893,51.91789 -13.40213,49.6 -13.40213,49.6 -38.69803,49.81114 -25.2959,0.21114 -25.2959,0.21114 -22.4774,-10.4 z m 28.93261,-102.31077 c -1.40876,-1.40877 -1.62445,-2.33438 -1.26035,-5.40869 0.75426,-6.36847 3.61208,-12.82475 6.44009,-14.54916 2.31891,-1.41398 4.22533,-1.53678 23.90145,-1.53953 21.38156,-0.003 21.38156,-0.003 22.69216,1.99723 2.79235,4.26166 -1.15923,17.4584 -5.97307,19.94773 -2.01511,1.04206 -5.91639,1.25205 -23.26092,1.25205 -20.18027,0 -20.89351,-0.0538 -22.53936,-1.69963 z m 291.69964,-94.66664 c -43.47046,-4.149 -89.0847,-14.91059 -150,-35.38892 -24.63762,-8.28261 -73.95666,-24.17313 -122.95144,-39.614791 -19.88328,-6.266604 -36.03686,-11.508398 -35.89683,-11.648431 0.14004,-0.140032 11.36818,2.982845 24.95144,6.939728 89.13448,25.965404 106.21243,30.245624 150.29683,37.668664 85.33778,14.36938 152.18272,16.31955 193.43749,5.64344 31.63465,-8.18657 57.92074,-24.208769 72.63828,-44.275317 2.51791,-3.43304 4.74237,-5.95304 4.94323,-5.6 1.53922,2.705396 14.20982,42.913497 13.67093,43.382517 -2.6359,2.29416 -11.41508,8.56651 -17.31812,12.37307 -21.88052,14.10959 -48.13841,24.69967 -72.87541,29.39141 -11.4158,2.16517 -43.75622,2.76456 -60.8964,1.12863 z"
       id="path1"
       sodipodi:nodetypes="sssssssssssssssssscsssssssssssssssssscssssssssssssssssssssssssssssssssssssssssssssssscsssssssssssssssssccsssssssssssssssssssssssssssssssssssssssssssssssssscssssscsssssssssssssssssssssssssssssssssssssssssssssssssssssssssssssssssssssssssss" />
  </g>
</svg>
