<svg width="172.89" height="172.95" version="1.1" viewBox="0 0 172.89 172.95" xmlns="http://www.w3.org/2000/svg">
<g transform="translate(-1.5544 -1.2061)">
<g transform="translate(.74254 -.41234)">
<path d="m100.24 2.5059c-5.564 0.7753-3.3866 7.2742-3.8242 11.174-0.28188 4.5308 0.57499 9.3169-0.44732 13.684-3.8655 2.332-8.807 0.7477-13.174 1.2118-4.0037-0.69199-9.2074 0.56153-7.9418 5.7072 0.16046 5.8592-0.32734 11.783 0.255 17.6 2.557 3.482 7.557 1.4383 11.313 1.9896 4.1363-0.39588 8.7278 0.92744 12.489-0.95307 1.8952-4.1169 0.54174-9.0674 0.95015-13.558-1.0529-4.2009 1.595-8.336 6.2563-7.2047 6.0043-0.1419 12.078 0.44287 18.035-0.19684 3.9024-2.5879 1.7943-7.8867 2.3344-11.855-0.17994-5.0781 0.37316-10.229-0.29985-15.258-2.5734-3.9144-7.8767-1.7998-11.841-2.3415h-14.105z"/>
<path d="m155.26 37.771c-4.6128-3.2139-7.4111 3.0511-10.37 5.6232-3.2678 3.1357-5.866 7.237-9.569 9.7494-4.4199-0.91517-6.9727-5.4312-10.493-8.0554-2.474-3.221-7.1497-5.8716-9.7091-1.2113-3.8398 4.4164-8.2033 8.4395-11.703 13.111-0.47481 4.2951 4.5775 6.1902 6.9648 9.1466 3.3112 2.5251 5.7924 6.6152 9.8349 7.7984 4.1808-1.7431 6.5324-6.3065 9.8708-9.3337 2.0609-3.8107 6.8098-5.0164 9.4552-1.0342 4.511 3.9796 8.5816 8.5364 13.395 12.119 4.6214 0.74873 6.6539-4.5855 9.7354-7.1379 3.2954-3.8535 7.1838-7.2617 10.082-11.413 0.75485-4.6241-4.5681-6.6733-7.1149-9.7641-3.4597-3.1993-6.9194-6.3986-10.379-9.5979z"/>
<path d="m172.79 100.96c-0.98508-5.5399-7.3948-3.1014-11.309-3.3782-4.5162-0.10253-9.2454 0.95919-13.627 0.10632-2.4789-3.775-1.102-8.774-1.7406-13.121 0.51209-4.0299-0.89392-9.2415-6.0162-7.7606-5.8272 0.40018-11.746 0.14788-17.514 0.96979-3.3645 2.7072-1.1266 7.6153-1.5236 11.394 0.55962 4.1392-0.56402 8.7957 1.4574 12.504 4.1849 1.7328 9.0775 0.17336 13.578 0.40047 4.1535-1.2379 8.3283 1.3051 7.3962 5.9718 0.38332 6.0149 0.052 12.127 0.9285 18.075 2.7319 3.806 7.9456 1.4776 11.929 1.8573 5.0447-0.37053 10.185-0.063 15.161-0.91893 3.7948-2.7425 1.4735-7.9508 1.8528-11.937-0.19122-4.7207-0.38244-9.4414-0.57366-14.162z"/>
<path d="m138.31 157.76c3.4457-4.4423-2.642-7.5819-5.0523-10.684-2.949-3.4377-6.8989-6.2604-9.2015-10.098 1.1378-4.3712 5.7734-6.6984 8.5718-10.086 3.3401-2.3153 6.2241-6.8488 1.7179-9.6624-4.1948-4.0791-7.9676-8.6595-12.436-12.414-4.2606-0.69611-6.4034 4.2608-9.4724 6.4941-2.6888 3.1833-6.8963 5.4602-8.2824 9.441 1.5101 4.2734 5.9346 6.8766 8.7729 10.38 3.6884 2.2728 4.6347 7.0803 0.53089 9.5247-4.1994 4.3085-8.953 8.1487-12.771 12.779-0.99494 4.579 4.2122 6.9067 6.5938 10.128 3.663 3.504 6.8481 7.5758 10.831 10.7 4.5746 0.99364 6.8842-4.2266 10.095-6.6119 3.3675-3.2971 6.7351-6.5942 10.103-9.8913z"/>
<path d="m72.583 172.17c5.5904-0.55356 3.6717-7.1339 4.2632-11.013 0.46089-4.5161-0.20605-9.3322 0.98824-13.656 3.955-2.1763 8.8296-0.39657 13.211-0.68659 3.9729 0.85083 9.2225-0.19467 8.1614-5.3866 0.07142-5.861 0.79317-11.761 0.44138-17.596-2.4169-3.5809-7.4941-1.738-11.226-2.4382-4.1488 0.23097-8.684-1.2741-12.517 0.45529-2.0566 4.0386-0.89996 9.0388-1.4857 13.509 0.88609 4.2393-1.9238 8.266-6.5364 6.95-6.0052-0.0972-12.05-0.9232-18.028-0.52107-4.0018 2.4311-2.1047 7.8092-2.8015 11.753-0.02106 5.0812-0.77748 10.206-0.30392 15.258 2.416 4.0136 7.7991 2.112 11.739 2.8109 4.698 0.18712 9.396 0.37423 14.094 0.56135z"/>
<path d="m17.41 137.92c4.4086 3.4897 7.583-2.5935 10.692-4.981 3.4516-2.93 6.2933-6.8654 10.141-9.1466 4.356 1.183 6.6295 5.8456 9.9841 8.6793 2.2743 3.3649 6.7801 6.3002 9.6194 1.8026 4.1003-4.1739 8.6998-7.9231 12.476-12.372 0.73422-4.2583-4.1929-6.4573-6.3962-9.5535-3.1522-2.723-5.3812-6.9567-9.3448-8.3851-4.2791 1.485-6.9037 5.8972-10.42 8.7156-2.2882 3.679-7.1014 4.588-9.4985 0.45428-4.2613-4.2477-8.0483-9.0443-12.636-12.915-4.5672-1.0295-6.9204 4.1718-10.151 6.5318-3.5225 3.645-7.6104 6.8091-10.754 10.776-1.0337 4.5698 4.1542 6.9389 6.5085 10.179 3.2596 3.4048 6.5193 6.8097 9.7789 10.215z"/>
<path d="m2.6639 73.762c0.81739 5.5671 7.2977 3.3244 11.202 3.7197 4.5111 0.23946 9.2702-0.67837 13.624 0.30701 2.3639 3.8481 0.83699 8.8033 1.3443 13.168-0.63324 4.0127 0.61479 9.2644 5.7796 7.9395 5.8366-0.22329 11.745 0.2085 17.535-0.43818 3.4446-2.6043 1.3555-7.5777 1.8663-11.342-0.43457-4.1542 0.82885-8.7748-1.0799-12.542-4.1306-1.8589-9.0682-0.44861-13.56-0.81208-4.1892 1.1112-8.285-1.557-7.2127-6.1934-0.20183-6.0237 0.31363-12.123-0.38324-18.095-2.6156-3.887-7.8973-1.718-11.868-2.2182-5.0535 0.21737-10.182-0.24592-15.182 0.45867-3.8759 2.6265-1.7125 7.9024-2.2117 11.875 0.048837 4.7244 0.097674 9.4487 0.14651 14.173z"/>
<path d="m37.416 18.341c-3.4646 4.4275 2.6096 7.5931 5.0065 10.705 2.9343 3.4504 6.8721 6.29 9.1583 10.138-1.1565 4.3663-5.802 6.6736-8.6149 10.049-3.3501 2.3009-6.2531 6.822-1.7591 9.6548 4.1773 4.0971 7.9305 8.6937 12.383 12.467 4.2576 0.71444 6.4216-4.2333 9.5001-6.4534 2.7024-3.1716 6.9195-5.4304 8.3226-9.4052-1.4918-4.2798-5.9051-6.902-8.7283-10.417-3.6786-2.2886-4.6047-7.1002-0.49026-9.527 4.2178-4.2904 8.9878-8.1101 12.826-12.724 1.0145-4.5747-4.1826-6.9247-6.5504-10.156-3.648-3.5198-6.8157-7.6052-10.785-10.746-4.5702-1.0133-6.9022 4.197-10.123 6.5684-3.3816 3.2826-6.7631 6.5651-10.145 9.8477z"/>
</g>
</g>
</svg>
